<svg width="450" height="81" viewBox="0 0 450 81" fill="none" xmlns="http://www.w3.org/2000/svg">
<path d="M110.479 57.8704H119.467L124.822 38.8234L130.156 57.8704H139.144L149.035 23.2204H140.026L134.23 46.6984L127.846 23.2204H121.798L115.414 46.6984L109.618 23.2204H100.609L110.479 57.8704ZM155.859 57.8704H163.944V23.2204H155.859V57.8704ZM174.857 57.8704H182.942V36.6814L196.55 57.8704H204.635V23.2204H196.55V44.4094L182.942 23.2204H174.857V57.8704ZM217.512 57.8704H225.618V30.3394H233.745V23.2204H209.385V30.3394H217.512V57.8704ZM240.498 57.8704H260.406V50.7724H248.583V44.0524H259.902V36.9544H248.583V30.3184H260.406V23.2204H240.498V57.8704ZM270.489 57.8704H278.574V45.3754H279.351L288.969 57.8704H299.238L287.982 44.3884C290.278 43.5904 292.049 42.2884 293.295 40.4824C294.541 38.6624 295.164 36.4854 295.164 33.9514C295.164 31.6834 294.674 29.7514 293.694 28.1554C292.714 26.5454 291.335 25.3204 289.557 24.4804C287.793 23.6404 285.707 23.2204 283.299 23.2204H270.489V57.8704ZM278.574 38.6554V29.6674H280.695C282.613 29.6674 284.083 30.0594 285.105 30.8434C286.127 31.6134 286.638 32.7264 286.638 34.1824C286.638 35.6244 286.127 36.7304 285.105 37.5004C284.097 38.2704 282.627 38.6554 280.695 38.6554H278.574Z" fill="#3BB1F7"/>
<path d="M305.114 57.8704H313.199V36.6814L326.807 57.8704H334.892V23.2204H326.807V44.4094L313.199 23.2204H305.114V57.8704ZM360.594 58.5424C363.016 58.5424 365.284 58.0804 367.398 57.1564C369.512 56.2324 371.367 54.9514 372.963 53.3134C374.559 51.6614 375.805 49.7504 376.701 47.5804C377.611 45.3964 378.066 43.0584 378.066 40.5664C378.066 38.0744 377.611 35.7434 376.701 33.5734C375.805 31.3894 374.559 29.4784 372.963 27.8404C371.367 26.1884 369.512 24.9004 367.398 23.9764C365.284 23.0524 363.016 22.5904 360.594 22.5904C358.172 22.5904 355.904 23.0524 353.79 23.9764C351.676 24.9004 349.821 26.1884 348.225 27.8404C346.629 29.4784 345.376 31.3894 344.466 33.5734C343.57 35.7434 343.122 38.0744 343.122 40.5664C343.122 43.0584 343.57 45.3964 344.466 47.5804C345.376 49.7504 346.629 51.6614 348.225 53.3134C349.821 54.9514 351.676 56.2324 353.79 57.1564C355.904 58.0804 358.172 58.5424 360.594 58.5424ZM360.594 50.7304C358.872 50.7304 357.353 50.3034 356.037 49.4494C354.721 48.5954 353.692 47.4054 352.95 45.8794C352.208 44.3394 351.837 42.5684 351.837 40.5664C351.837 38.5504 352.208 36.7794 352.95 35.2534C353.692 33.7274 354.721 32.5374 356.037 31.6834C357.353 30.8294 358.872 30.4024 360.594 30.4024C362.33 30.4024 363.849 30.8294 365.151 31.6834C366.467 32.5374 367.496 33.7274 368.238 35.2534C368.98 36.7794 369.351 38.5504 369.351 40.5664C369.351 42.5684 368.98 44.3394 368.238 45.8794C367.496 47.4054 366.467 48.5954 365.151 49.4494C363.849 50.3034 362.33 50.7304 360.594 50.7304ZM386.301 57.8704H396.423C398.887 57.8704 401.176 57.4364 403.29 56.5684C405.418 55.6864 407.273 54.4614 408.855 52.8934C410.451 51.3254 411.69 49.4914 412.572 47.3914C413.454 45.2914 413.895 43.0234 413.895 40.5874C413.895 38.1514 413.447 35.8834 412.551 33.7834C411.669 31.6694 410.43 29.8214 408.834 28.2394C407.252 26.6574 405.404 25.4254 403.29 24.5434C401.176 23.6614 398.887 23.2204 396.423 23.2204H386.301V57.8704ZM394.386 50.6254V30.4654H395.478C397.354 30.4654 399.02 30.8994 400.476 31.7674C401.932 32.6354 403.073 33.8324 403.899 35.3584C404.739 36.8704 405.159 38.6064 405.159 40.5664C405.159 42.5124 404.739 44.2414 403.899 45.7534C403.073 47.2654 401.932 48.4554 400.476 49.3234C399.02 50.1914 397.354 50.6254 395.478 50.6254H394.386ZM422.034 57.8704H441.942V50.7724H430.119V44.0524H441.438V36.9544H430.119V30.3184H441.942V23.2204H422.034V57.8704Z" fill="white"/>
<path d="M70.1379 10.7263V20.8039L60.0603 10.7263H70.1379Z" fill="#3BB1F7"/>
<path d="M12.4698 10.7263V20.8039L22.5475 10.7263H12.4698Z" fill="#3BB1F7"/>
<path d="M12.4697 70.8918V60.8167L22.5473 70.8943L12.4697 70.8918Z" fill="#3BB1F7"/>
<path d="M70.1379 70.8918V60.8167L60.0603 70.8943L70.1379 70.8918Z" fill="#3BB1F7"/>
<path d="M40.1504 0.870361L0.150391 40.8704L40.1504 80.8704L80.1504 40.8704L40.1504 0.870361ZM37.5509 62.5902L35.6955 61.5332L38.6942 58.5074V44.4382L30.191 52.9808V57.2336L28.1065 56.6348V55.0357L26.6282 56.5141L24.5436 54.4296L25.9998 52.9734H24.1716L23.5999 50.9184H28.0819L36.6195 42.3537H22.4493L19.3077 45.5223L18.2236 43.6374L19.5098 42.3537H17.4524V39.4142H19.564L18.4232 38.2733L19.4802 36.3884L22.5059 39.4142H36.6097L28.072 30.9061H23.8192L24.418 28.8216H26.0171L24.5387 27.3432L26.6232 25.2587L28.0794 26.7149V24.8916L30.1344 24.3199V28.8019L38.6991 37.3395V23.1963L35.6955 20.21L37.5509 19.153L38.6942 20.2963V18.1822H41.6337V20.2371L42.947 18.9534L44.8024 20.0104L41.6362 23.1668V37.3001L50.1492 28.8339V24.5392L52.2337 25.1379V26.7371L53.7121 25.2587L54.7395 26.2862L55.7966 27.3432L54.3404 28.7994H56.1662L56.7378 30.8839H52.2559L43.7182 39.4142H57.7875L57.817 39.3846L60.8157 36.3884L61.8702 38.2733L60.7294 39.4142H62.8435V42.3537H60.7935L62.0772 43.6374L60.9931 45.5223L57.8515 42.3537H43.7429L52.2509 50.8617H56.5037L55.905 52.9463H54.3059L55.7843 54.4246L53.6997 56.5092L52.2435 55.0529V56.8812L50.1886 57.4529V52.9808L41.6238 44.4431V58.5468L44.7925 61.7155L42.9371 62.7996L41.6238 61.4864V63.5758H38.6942V61.4617L37.5509 62.5902Z" fill="white"/>
</svg>
