<svg id="svg" version="1.1" xmlns="http://www.w3.org/2000/svg" xmlns:xlink="http://www.w3.org/1999/xlink" width="400" height="400" viewBox="0, 0, 400,400"><g id="svgg"><path id="path0" d="M191.281 93.679 C 189.235 94.039,186.651 94.628,185.540 94.988 C 183.533 95.637,40.957 152.873,38.567 153.988 C 35.755 155.301,35.013 159.056,37.130 161.270 C 38.204 162.394,175.027 217.895,185.388 221.409 C 194.521 224.508,206.676 224.386,215.556 221.107 C 220.672 219.218,290.550 191.040,290.972 190.696 C 291.533 190.239,307.743 183.704,308.317 183.704 C 308.807 183.704,359.823 163.265,361.507 162.394 C 366.245 159.944,364.906 155.482,358.647 152.863 C 347.009 147.993,216.096 95.516,213.906 94.843 C 207.470 92.866,198.513 92.405,191.281 93.679 M210.000 109.032 C 213.250 109.981,329.082 156.428,329.907 157.114 C 330.585 157.676,330.472 159.180,329.722 159.574 C 329.366 159.761,309.907 167.618,286.481 177.034 C 263.056 186.449,236.713 197.040,227.943 200.568 C 204.419 210.034,198.770 210.888,187.486 206.685 C 183.482 205.194,72.636 160.601,70.982 159.817 C 69.565 159.144,69.151 157.889,70.093 157.120 C 70.952 156.419,187.566 109.685,190.387 108.911 C 196.210 107.314,204.287 107.364,210.000 109.032 M92.593 233.081 C 92.593 262.851,92.548 262.203,94.816 265.626 C 96.877 268.737,97.680 269.098,144.911 288.127 C 194.535 308.120,193.524 307.752,199.630 308.038 C 207.798 308.421,205.916 309.020,241.199 294.822 C 268.479 283.845,269.597 283.323,270.414 281.180 C 270.831 280.085,270.845 267.407,270.429 267.407 C 270.257 267.407,256.882 272.751,240.707 279.283 C 224.531 285.815,210.046 291.516,208.519 291.954 C 204.879 292.995,198.027 293.056,194.444 292.078 C 192.294 291.491,115.879 260.740,113.148 259.363 C 109.340 257.442,109.471 258.256,109.259 235.185 C 109.052 212.638,109.157 213.491,106.373 211.615 C 105.397 210.957,93.373 205.926,92.777 205.926 C 92.675 205.926,92.593 218.146,92.593 233.081 " stroke="none" fill="#fcfcfc" fill-rule="evenodd"></path><path id="path1" d="M299.630 187.174 L 291.296 190.588 291.202 232.548 C 291.150 255.625,291.248 274.451,291.420 274.383 C 291.591 274.315,294.710 273.093,298.351 271.667 C 305.682 268.796,307.376 267.638,308.105 265.000 C 308.576 263.294,308.709 183.685,308.241 183.731 C 308.088 183.747,304.213 185.296,299.630 187.174 " stroke="none" fill="#f3c454" fill-rule="evenodd"></path><path id="path2" d="" stroke="none" fill="#fceccc" fill-rule="evenodd"></path><path id="path3" d="" stroke="none" fill="#fcecc4" fill-rule="evenodd"></path><path id="path4" d="" stroke="none" fill="#fcf4d4" fill-rule="evenodd"></path></g></svg>